# xmcd
#
# Track frame offsets:
#   150
#   21000
#   40715
#   60251
#   79406
#   103913
#   124729
#   149783
#   171500
#   193105
#   220692
#   244991
#
# Disc length: 3549 seconds
#
# Revision: 0
# Processed by: cddbd v1.5.2PL0 Copyright (c) Steve Scherf et al.
# Submitted via: uFREEDB ActiveX Control 1.5
#
DISCID=b10ddb0c
DTITLE=CÉSAR OLIVEIRA and ROGÉRIO MELO - RIO-GRANDENSES - VOL 2
DYEAR=1900
DGENRE=MÚSICA GAÚCHA
TTITLE0=TROVA
TTITLE1=CABANHA TORO PASSO
TTITLE2=DE VIDA E TEMPO
TTITLE3=LEGÜERA
TTITLE4=LÁ NA FRONTEIRA
TTITLE5=COM A ALMA PRESA NA ESPORA
TTITLE6=ALMA CAMPEIRA
TTITLE7=VELÓRIO DO JUCA TORTO
TTITLE8=SERENATA CAMPEIRA
TTITLE9=CHASQUE PARA DOM MUNHOZ
TTITLE10=PEÑAROL
TTITLE11=COM ALMAS IGUAIS
EXTD=
EXTT0=
EXTT1=
EXTT2=
EXTT3=
EXTT4=
EXTT5=
EXTT6=
EXTT7=
EXTT8=
EXTT9=
EXTT10=
EXTT11=
PLAYORDER=
